<svg width="16" height="17" viewBox="0 0 16 17" fill="none" xmlns="http://www.w3.org/2000/svg">
<g clip-path="url(#clip0_364:8399)">
<path d="M13.3333 6.99854H7.33333C6.59695 6.99854 6 7.59549 6 8.33187V14.3319C6 15.0682 6.59695 15.6652 7.33333 15.6652H13.3333C14.0697 15.6652 14.6667 15.0682 14.6667 14.3319V8.33187C14.6667 7.59549 14.0697 6.99854 13.3333 6.99854Z" stroke="#52575C" stroke-linecap="round" stroke-linejoin="round"/>
<path d="M3.33325 10.9985H2.66659C2.31296 10.9985 1.97382 10.858 1.72378 10.6079C1.47373 10.3579 1.33325 10.0187 1.33325 9.66512V3.66512C1.33325 3.3115 1.47373 2.97236 1.72378 2.72231C1.97382 2.47226 2.31296 2.33179 2.66659 2.33179H8.66659C9.02021 2.33179 9.35935 2.47226 9.60939 2.72231C9.85944 2.97236 9.99992 3.3115 9.99992 3.66512V4.33179" stroke="#52575C" stroke-linecap="round" stroke-linejoin="round"/>
</g>
<defs>
<clipPath id="clip0_364:8399">
<rect width="16" height="16" fill="white" transform="translate(0 0.998535)"/>
</clipPath>
</defs>
</svg>
