<svg width="15" height="16" viewBox="0 0 15 16" fill="none" xmlns="http://www.w3.org/2000/svg">
<path d="M1.90636 4.45776H3.1348H12.9623" stroke="#5D5FEF" stroke-linecap="round" stroke-linejoin="round"/>
<path d="M4.97748 4.45773V3.22929C4.97748 2.90349 5.10691 2.59103 5.33728 2.36065C5.56766 2.13028 5.88012 2.00085 6.20592 2.00085H8.66279C8.98859 2.00085 9.30105 2.13028 9.53143 2.36065C9.7618 2.59103 9.89123 2.90349 9.89123 3.22929V4.45773M11.7339 4.45773V13.0568C11.7339 13.3826 11.6045 13.695 11.3741 13.9254C11.1437 14.1558 10.8312 14.2852 10.5054 14.2852H4.36327C4.03746 14.2852 3.72501 14.1558 3.49463 13.9254C3.26425 13.695 3.13483 13.3826 3.13483 13.0568V4.45773H11.7339Z" stroke="#5D5FEF" stroke-linecap="round" stroke-linejoin="round"/>
</svg>
