<svg width="16" height="17" viewBox="0 0 16 17" fill="none" xmlns="http://www.w3.org/2000/svg">
<g clip-path="url(#clip0_364:8428)">
<path d="M2 4.99854H3.33333H14" stroke="#52575C" stroke-linecap="round" stroke-linejoin="round"/>
<path d="M5.33325 4.99845V3.66512C5.33325 3.3115 5.47373 2.97236 5.72378 2.72231C5.97383 2.47226 6.31296 2.33179 6.66659 2.33179H9.33325C9.68687 2.33179 10.026 2.47226 10.2761 2.72231C10.5261 2.97236 10.6666 3.3115 10.6666 3.66512V4.99845M12.6666 4.99845V14.3318C12.6666 14.6854 12.5261 15.0245 12.2761 15.2746C12.026 15.5246 11.6869 15.6651 11.3333 15.6651H4.66659C4.31296 15.6651 3.97382 15.5246 3.72378 15.2746C3.47373 15.0245 3.33325 14.6854 3.33325 14.3318V4.99845H12.6666Z" stroke="#52575C" stroke-linecap="round" stroke-linejoin="round"/>
</g>
<defs>
<clipPath id="clip0_364:8428">
<rect width="16" height="16" fill="white" transform="translate(0 0.998535)"/>
</clipPath>
</defs>
</svg>
