<svg width="50" height="50" viewBox="0 0 50 50" fill="none" xmlns="http://www.w3.org/2000/svg">
<path d="M6.25 12.5H10.4167H43.75" stroke="#25282B" stroke-linecap="round" stroke-linejoin="round"/>
<path d="M16.6667 12.5003V8.33366C16.6667 7.22859 17.1057 6.16878 17.8871 5.38738C18.6685 4.60598 19.7283 4.16699 20.8334 4.16699H29.1667C30.2718 4.16699 31.3316 4.60598 32.113 5.38738C32.8944 6.16878 33.3334 7.22859 33.3334 8.33366V12.5003M39.5834 12.5003V41.667C39.5834 42.7721 39.1444 43.8319 38.363 44.6133C37.5816 45.3947 36.5218 45.8337 35.4167 45.8337H14.5834C13.4783 45.8337 12.4185 45.3947 11.6371 44.6133C10.8557 43.8319 10.4167 42.7721 10.4167 41.667V12.5003H39.5834Z" stroke="#25282B" stroke-linecap="round" stroke-linejoin="round"/>
</svg>
