<svg width="16" height="17" viewBox="0 0 16 17" fill="none" xmlns="http://www.w3.org/2000/svg">
<g clip-path="url(#clip0_364:8386)">
<path d="M11.3333 2.99857C11.5083 2.82348 11.7162 2.68458 11.945 2.58982C12.1738 2.49506 12.419 2.44629 12.6666 2.44629C12.9142 2.44629 13.1594 2.49506 13.3882 2.58982C13.617 2.68458 13.8248 2.82348 13.9999 2.99857C14.175 3.17367 14.3139 3.38154 14.4087 3.61031C14.5034 3.83909 14.5522 4.08428 14.5522 4.33191C14.5522 4.57953 14.5034 4.82473 14.4087 5.0535C14.3139 5.28228 14.175 5.49014 13.9999 5.66524L4.99992 14.6652L1.33325 15.6652L2.33325 11.9986L11.3333 2.99857Z" stroke="#5D5FEF" stroke-linecap="round" stroke-linejoin="round"/>
</g>
<defs>
<clipPath id="clip0_364:8386">
<rect width="16" height="16" fill="white" transform="translate(0 0.998535)"/>
</clipPath>
</defs>
</svg>
