<svg width="112" height="21" viewBox="0 0 112 21" fill="none" xmlns="http://www.w3.org/2000/svg">
<path fill-rule="evenodd" clip-rule="evenodd" d="M14.4721 0.158666C23.4847 -1.19371 17.7167 6.48303 14.9127 8.63092C16.8354 10.1026 18.7982 12.171 19.6393 14.5178C21.2016 18.8136 17.3561 19.4499 14.4721 18.376C11.3077 17.2623 8.50373 14.8757 6.66115 12.0914C6.14041 12.0914 5.57962 12.0119 5.0589 11.8528C6.10036 14.7962 6.54097 17.8192 6.26058 20.2853C6.26058 15.3132 3.89727 10.3811 0.492495 6.28414C-0.70919 4.85222 0.532552 3.77827 1.61407 5.17042C2.34211 6.17865 3.01084 7.22782 3.61688 8.31272C4.77851 4.25559 10.5466 0.715528 14.4721 0.158666ZM13.1902 7.47738C14.9527 6.40343 20.3202 0.635931 15.3132 1.15302C12.4292 1.47122 8.94427 4.13621 7.50225 5.84656C9.50506 5.60791 11.5479 6.48299 13.1902 7.47738ZM7.4624 7.11945C8.8243 7.00012 10.3064 7.71609 11.428 8.43205C10.3464 8.94914 9.14475 9.26734 7.90302 9.3469C6.06043 9.3469 5.69993 7.27855 7.4624 7.11945ZM8.22358 11.9323C9.82583 13.7222 12.0289 15.4723 14.3922 16.1088C15.7542 16.4667 17.2763 16.3077 16.7155 14.3586C16.1547 12.5687 14.7127 10.9777 13.3107 9.78437C12.9101 10.0628 12.4695 10.3412 12.0289 10.5401C10.8272 11.2163 9.54543 11.6936 8.22358 11.9323Z" fill="#F5A623"/>
<path fill-rule="evenodd" clip-rule="evenodd" d="M41.4137 5H41.4548C41.6604 5 41.7836 5.16869 41.7836 5.37955V15.1639C41.7836 15.3326 41.6604 15.5013 41.4548 15.5013C41.2904 15.5013 41.1259 15.3747 41.1259 15.1639V5.3374C41.1259 5.16869 41.2493 5 41.4137 5ZM32.4109 5.5062H38.6184C38.824 5.5062 38.9472 5.71707 38.9472 5.88576C38.9472 6.05447 38.824 6.22315 38.6184 6.22315H32.7399V10.314H38.0428C38.2073 10.314 38.3717 10.4405 38.3717 10.6514C38.3717 10.8201 38.2485 10.9888 38.0428 10.9888H32.781V15.2062C32.7399 15.417 32.5755 15.5857 32.3699 15.5857C32.1644 15.5857 32 15.417 32 15.2062V5.88576H32.0411C32.0411 5.67489 32.2055 5.5062 32.4109 5.5062ZM50.4166 8.54264C50.4166 8.33178 50.2522 8.20526 50.0878 8.20526C49.8822 8.20526 49.759 8.37395 49.759 8.54264V12.6335C49.759 14.0252 48.649 15.1218 47.2925 15.0796C45.8537 15.0796 45.0314 14.1096 45.0314 12.5913V8.54264C45.0314 8.33178 44.867 8.20526 44.7026 8.20526C44.5382 8.20526 44.3738 8.37395 44.3738 8.54264V12.7178C44.3738 14.447 45.4426 15.7122 47.2102 15.7122C48.279 15.7544 49.3067 15.1639 49.8001 14.1939V15.2483C49.8001 15.4592 49.9645 15.5857 50.1289 15.5857C50.3345 15.5857 50.4577 15.417 50.4577 15.2483H50.4166V8.54264ZM56.6651 8.58453C56.6651 8.75322 56.5007 8.87975 56.3363 8.87975H54.0753V13.561C54.0753 14.6154 54.6508 14.9949 55.5141 14.9949C55.8018 14.9949 56.0896 14.9528 56.3363 14.8684C56.5007 14.8684 56.6239 14.9949 56.6239 15.1636C56.6239 15.2902 56.5418 15.4167 56.4184 15.4589C56.0896 15.5854 55.7196 15.6275 55.3907 15.6275C54.322 15.6275 53.4174 14.9949 53.4174 13.6454V8.87975H52.6365C52.472 8.87975 52.3076 8.71104 52.3076 8.54235C52.3076 8.37366 52.472 8.24713 52.6365 8.24713H53.4174V6.22279C53.4174 6.05409 53.5408 5.8854 53.7052 5.8854H53.7464C53.9109 5.8854 54.0753 6.05409 54.0753 6.22279V8.24713H56.3363C56.5007 8.24713 56.6651 8.41582 56.6651 8.58453ZM61.9268 8.87975C62.0914 8.87975 62.2558 8.75322 62.2558 8.58453C62.2558 8.41582 62.0914 8.24713 61.9268 8.24713H59.6659V6.22279C59.6659 6.05409 59.5015 5.8854 59.3371 5.8854H59.2959C59.1315 5.8854 59.0081 6.05409 59.0081 6.22279V8.24713H58.2271C58.0627 8.24713 57.8983 8.37366 57.8983 8.54235C57.8983 8.71104 58.0627 8.87975 58.2271 8.87975H59.0081V13.6454C59.0081 14.9949 59.9126 15.6275 60.9814 15.6275C61.3102 15.6275 61.6803 15.5854 62.0091 15.4589C62.1324 15.4167 62.2146 15.2902 62.2146 15.1636C62.2146 14.9949 62.0914 14.8684 61.9268 14.8684C61.6803 14.9528 61.3925 14.9949 61.1047 14.9949C60.2415 14.9949 59.6659 14.6154 59.6659 13.561V8.87975H61.9268ZM63.4893 11.8743C63.4893 9.72343 64.9281 8.03647 66.8602 8.03647C68.8745 8.03647 70.1489 9.72343 70.1489 11.8743C70.1489 12.043 69.9843 12.2117 69.8199 12.2117H64.2293C64.3526 14.0252 65.627 15.0795 67.0246 15.0795C67.8879 15.0795 68.7512 14.6999 69.3267 14.0673C69.3677 14.0252 69.45 13.983 69.5322 13.983C69.6966 13.983 69.8612 14.1517 69.8612 14.3204C69.8612 14.4047 69.8199 14.4891 69.7378 14.5734C69.0389 15.3747 68.0112 15.7965 66.9835 15.7543C65.0925 15.7543 63.4893 14.236 63.4893 11.9165V11.8743ZM64.1878 11.5367C64.3112 9.93414 65.4212 8.71109 66.8189 8.71109C68.4222 8.71109 69.2855 10.0607 69.3676 11.5367H64.1878ZM72.8207 10.3562C73.2729 9.13311 74.3827 8.24747 75.6571 8.16312C75.8628 8.16312 76.0272 8.33181 76.0272 8.58485C76.0272 8.75356 75.9038 8.96442 75.6982 8.96442H75.6571C74.1362 9.13311 72.8207 10.2718 72.8207 12.6335V15.3327C72.7795 15.5435 72.6561 15.6701 72.4507 15.6701C72.2863 15.6701 72.1219 15.5014 72.1219 15.3327V8.58485C72.1629 8.37399 72.2863 8.24748 72.4917 8.24748C72.6561 8.24748 72.8207 8.41616 72.8207 8.58485V10.3562ZM86.88 7.7836C86.3866 7.7836 85.9755 8.12098 85.8522 8.62706L84.6601 12.5492L83.4679 8.62706C83.3446 8.12098 82.8924 7.74142 82.358 7.74142H82.2348C81.7003 7.74142 81.2481 8.0788 81.1248 8.62706L79.9327 12.5071L78.7816 8.5849C78.6583 8.12098 78.2472 7.74142 77.7539 7.74142H77.7127C77.1784 7.74142 76.7673 8.20533 76.7673 8.75359C76.7673 8.92228 76.8083 9.09099 76.8496 9.25968L78.6993 14.7001C78.8227 15.2484 79.2749 15.6279 79.8504 15.6701H79.9327C80.467 15.6701 80.9193 15.2905 81.0837 14.7423L82.2758 10.8623L83.4679 14.7423C83.5913 15.2905 84.0845 15.6701 84.619 15.6701H84.7013C85.2768 15.6701 85.7701 15.2905 85.8934 14.7001L87.7432 9.2175C87.7844 9.09099 87.8254 8.92228 87.8254 8.79577V8.75359C87.8254 8.20533 87.4143 7.7836 86.88 7.7836ZM89.757 8.16285C90.5382 7.90981 91.3191 7.7411 92.1414 7.78328C93.2924 7.78328 94.1145 8.12067 94.7312 8.66893C95.3068 9.3437 95.5945 10.2294 95.5533 11.115V14.5733C95.5533 15.1637 95.1011 15.6276 94.5256 15.6276C93.9913 15.6276 93.539 15.248 93.4979 14.6998C92.9224 15.3324 92.1003 15.712 91.237 15.6698C89.8803 15.6698 88.6882 14.8263 88.6882 13.308C88.6882 11.6211 89.9216 10.8198 91.6892 10.8198C92.3058 10.8198 92.9224 10.9041 93.4979 11.115V10.9885C93.4979 10.0607 92.9634 9.59675 91.8947 9.59675C91.4014 9.59675 90.908 9.63892 90.4148 9.80763C90.3325 9.84979 90.2093 9.84979 90.127 9.84979C89.6338 9.89197 89.2227 9.51241 89.2227 9.00633C89.2227 8.62675 89.4282 8.28936 89.757 8.16285ZM93.5395 12.802C93.5395 13.6455 92.8406 14.1516 91.854 14.1094C91.1963 14.1094 90.7029 13.772 90.7029 13.1816V13.1394C90.7029 12.5068 91.2784 12.085 92.183 12.085C92.6351 12.085 93.1284 12.2116 93.5395 12.3803V12.802ZM101.884 8.50055C102.007 8.03664 102.419 7.74142 102.871 7.74142C103.446 7.74142 103.898 8.20533 103.898 8.75359V8.79577C103.898 8.96446 103.857 9.13315 103.775 9.30185L101.555 14.7423C101.35 15.2905 100.856 15.6279 100.322 15.6701H100.199C99.6232 15.6279 99.171 15.2484 99.0066 14.7001L96.7045 9.25968C96.6222 9.09099 96.5812 8.92228 96.5812 8.75359C96.6222 8.16316 97.0744 7.74142 97.6089 7.74142C98.1021 7.74142 98.5132 8.0788 98.6366 8.54273L100.24 12.971L101.884 8.50055ZM108.421 7.69928C106.242 7.69928 104.721 9.51275 104.721 11.7058V12.0432C104.803 14.1519 106.571 15.7966 108.626 15.6701C109.572 15.6701 110.476 15.3749 111.216 14.7423C111.422 14.5736 111.504 14.3627 111.504 14.1097V14.0675C111.504 13.6036 111.134 13.2241 110.682 13.2241C110.517 13.2241 110.312 13.2662 110.188 13.3928C109.736 13.7301 109.202 13.941 108.667 13.8988C107.763 13.941 106.982 13.3084 106.859 12.3806H111.093C111.627 12.3384 112.038 11.8745 111.997 11.3262V11.1575C111.997 9.25971 110.394 7.65711 108.421 7.69928ZM108.42 9.47027C107.557 9.47027 106.982 10.1029 106.817 11.115H109.983C109.859 10.145 109.284 9.47027 108.42 9.47027Z" fill="#333333"/>
</svg>
