<svg width="158" height="112" viewBox="0 0 158 112" fill="none" xmlns="http://www.w3.org/2000/svg">
<path d="M154.226 17.7731C152.413 11.0089 147.103 5.67555 140.369 3.85441C128.067 0.47229 78.8561 0.47229 78.8561 0.47229C78.8561 0.47229 29.6454 0.47229 17.3428 3.72433C10.7382 5.54547 5.2991 11.0089 3.48608 17.7731C0.248535 30.1309 0.248535 55.7569 0.248535 55.7569C0.248535 55.7569 0.248535 81.5131 3.48608 93.7408C5.2991 100.505 10.6087 105.838 17.3428 107.659C29.7749 111.042 78.8561 111.042 78.8561 111.042C78.8561 111.042 128.067 111.042 140.369 107.79C147.103 105.968 152.413 100.635 154.226 93.8708C157.464 81.5131 157.464 55.887 157.464 55.887C157.464 55.887 157.593 30.1309 154.226 17.7731Z" fill="#FF0000"/>
<path d="M104.109 55.757L63.1863 32.0822V79.4318L104.109 55.757Z" fill="white"/>
</svg>
