<svg width="481" height="343" viewBox="0 0 481 343" fill="none" xmlns="http://www.w3.org/2000/svg">
<rect x="30.4102" y="25.4062" width="420.179" height="317.188" rx="10" fill="#F6F4FF"/>
<g filter="url(#filter0_d_463_5472)">
<path d="M30.4102 35.4062C30.4102 29.8834 34.8873 25.4062 40.4102 25.4062H440.589C446.112 25.4062 450.589 29.8834 450.589 35.4063V65.2812H30.4102V35.4062Z" fill="#C4C4C4"/>
</g>
<ellipse cx="46.5" cy="45" rx="5.5" ry="5" fill="white"/>
<circle cx="67" cy="45" r="5" fill="white"/>
<ellipse cx="87.5" cy="45" rx="5.5" ry="5" fill="white"/>
<rect x="40.9717" y="123.281" width="67.3545" height="43.4705" rx="3" fill="#DFDFFC"/>
<rect x="40.5547" y="187.625" width="201.213" height="142.281" rx="3" fill="#DFDFFC"/>
<rect x="257.833" y="187.899" width="178.636" height="49.3448" rx="3" fill="#DFDFFC"/>
<rect x="257.831" y="244.293" width="178.636" height="14.0985" rx="3" fill="#DFDFFC"/>
<rect x="257.831" y="263.092" width="178.636" height="8.22414" rx="3" fill="#DFDFFC"/>
<rect x="257.831" y="276.015" width="164.97" height="8.22414" rx="3" fill="#DFDFFC"/>
<rect x="257.831" y="300.688" width="76.1398" height="29.3719" rx="3" fill="#DFDFFC"/>
<rect x="133.689" y="140.5" width="85.9014" height="25.8473" rx="1" fill="#DFDFFC"/>
<rect x="244.953" y="140.5" width="85.9014" height="25.8473" rx="1" fill="#DFDFFC"/>
<rect x="356.218" y="140.5" width="81.9968" height="25.8473" rx="1" fill="#DFDFFC"/>
<ellipse cx="381.143" cy="321.683" rx="9.09077" ry="8.99515" fill="#DFDFFC"/>
<ellipse cx="404.221" cy="321.683" rx="8.39148" ry="8.99515" fill="#DFDFFC"/>
<ellipse cx="427.298" cy="321.683" rx="9.09077" ry="8.99515" fill="#DFDFFC"/>
<g filter="url(#filter1_d_463_5472)">
<rect x="30.4102" y="65.2812" width="420.179" height="49.8438" rx="5" fill="white"/>
</g>
<g filter="url(#filter2_d_463_5472)">
<rect width="76" height="24" rx="3" transform="matrix(-1 0 0 1 436.431 76.9375)" fill="#5D5FEF"/>
</g>
<path d="M374.81 87.0375H372.49V85.9375H378.43V87.0375H376.11V92.9375H374.81V87.0375ZM381.242 87.5375C382.029 87.5375 382.629 87.7275 383.042 88.1075C383.462 88.4808 383.672 89.0475 383.672 89.8075V92.9375H382.492V92.2875C382.339 92.5208 382.119 92.7008 381.832 92.8275C381.552 92.9475 381.212 93.0075 380.812 93.0075C380.412 93.0075 380.062 92.9408 379.762 92.8075C379.462 92.6675 379.229 92.4775 379.062 92.2375C378.902 91.9908 378.822 91.7142 378.822 91.4075C378.822 90.9275 378.999 90.5442 379.352 90.2575C379.712 89.9642 380.276 89.8175 381.042 89.8175H382.422V89.7375C382.422 89.3642 382.309 89.0775 382.082 88.8775C381.862 88.6775 381.532 88.5775 381.092 88.5775C380.792 88.5775 380.496 88.6242 380.202 88.7175C379.916 88.8108 379.672 88.9408 379.472 89.1075L378.982 88.1975C379.262 87.9842 379.599 87.8208 379.992 87.7075C380.386 87.5942 380.802 87.5375 381.242 87.5375ZM381.072 92.0975C381.386 92.0975 381.662 92.0275 381.902 91.8875C382.149 91.7408 382.322 91.5342 382.422 91.2675V90.6475H381.132C380.412 90.6475 380.052 90.8842 380.052 91.3575C380.052 91.5842 380.142 91.7642 380.322 91.8975C380.502 92.0308 380.752 92.0975 381.072 92.0975ZM387.657 90.6475L386.727 91.5275V92.9375H385.477V85.5175H386.727V89.9975L389.317 87.5975H390.817L388.587 89.8375L391.027 92.9375H389.507L387.657 90.6475ZM396.829 90.2975C396.829 90.3842 396.823 90.5075 396.809 90.6675H392.619C392.693 91.0608 392.883 91.3742 393.189 91.6075C393.503 91.8342 393.889 91.9475 394.349 91.9475C394.936 91.9475 395.419 91.7542 395.799 91.3675L396.469 92.1375C396.229 92.4242 395.926 92.6408 395.559 92.7875C395.193 92.9342 394.779 93.0075 394.319 93.0075C393.733 93.0075 393.216 92.8908 392.769 92.6575C392.323 92.4242 391.976 92.1008 391.729 91.6875C391.489 91.2675 391.369 90.7942 391.369 90.2675C391.369 89.7475 391.486 89.2808 391.719 88.8675C391.959 88.4475 392.289 88.1208 392.709 87.8875C393.129 87.6542 393.603 87.5375 394.129 87.5375C394.649 87.5375 395.113 87.6542 395.519 87.8875C395.933 88.1142 396.253 88.4375 396.479 88.8575C396.713 89.2708 396.829 89.7508 396.829 90.2975ZM394.129 88.5375C393.729 88.5375 393.389 88.6575 393.109 88.8975C392.836 89.1308 392.669 89.4442 392.609 89.8375H395.639C395.586 89.4508 395.423 89.1375 395.149 88.8975C394.876 88.6575 394.536 88.5375 394.129 88.5375ZM408.704 93.6375C408.47 93.9108 408.197 94.1175 407.884 94.2575C407.577 94.3975 407.24 94.4675 406.874 94.4675C406.394 94.4675 405.954 94.3575 405.554 94.1375C405.154 93.9242 404.697 93.5508 404.184 93.0175C403.537 92.9642 402.957 92.7775 402.444 92.4575C401.93 92.1308 401.53 91.7075 401.244 91.1875C400.957 90.6608 400.814 90.0775 400.814 89.4375C400.814 88.7575 400.977 88.1442 401.304 87.5975C401.63 87.0442 402.08 86.6142 402.654 86.3075C403.227 85.9942 403.87 85.8375 404.584 85.8375C405.297 85.8375 405.94 85.9942 406.514 86.3075C407.087 86.6142 407.537 87.0408 407.864 87.5875C408.19 88.1342 408.354 88.7508 408.354 89.4375C408.354 89.9908 408.244 90.5042 408.024 90.9775C407.804 91.4442 407.497 91.8442 407.104 92.1775C406.71 92.5042 406.254 92.7408 405.734 92.8875C405.927 93.0942 406.117 93.2442 406.304 93.3375C406.49 93.4308 406.69 93.4775 406.904 93.4775C407.364 93.4775 407.764 93.2908 408.104 92.9175L408.704 93.6375ZM402.124 89.4375C402.124 89.9042 402.23 90.3275 402.444 90.7075C402.657 91.0808 402.95 91.3742 403.324 91.5875C403.697 91.7942 404.117 91.8975 404.584 91.8975C405.05 91.8975 405.47 91.7942 405.844 91.5875C406.217 91.3742 406.51 91.0808 406.724 90.7075C406.937 90.3275 407.044 89.9042 407.044 89.4375C407.044 88.9708 406.937 88.5508 406.724 88.1775C406.51 87.7975 406.217 87.5042 405.844 87.2975C405.47 87.0842 405.05 86.9775 404.584 86.9775C404.117 86.9775 403.697 87.0842 403.324 87.2975C402.95 87.5042 402.657 87.7975 402.444 88.1775C402.23 88.5508 402.124 88.9708 402.124 89.4375ZM414.982 87.5975V92.9375H413.792V92.2575C413.592 92.4975 413.342 92.6842 413.042 92.8175C412.742 92.9442 412.418 93.0075 412.072 93.0075C411.358 93.0075 410.795 92.8108 410.382 92.4175C409.975 92.0175 409.772 91.4275 409.772 90.6475V87.5975H411.022V90.4775C411.022 90.9575 411.128 91.3175 411.342 91.5575C411.562 91.7908 411.872 91.9075 412.272 91.9075C412.718 91.9075 413.072 91.7708 413.332 91.4975C413.598 91.2175 413.732 90.8175 413.732 90.2975V87.5975H414.982ZM416.818 87.5975H418.068V92.9375H416.818V87.5975ZM417.448 86.7175C417.222 86.7175 417.032 86.6475 416.878 86.5075C416.725 86.3608 416.648 86.1808 416.648 85.9675C416.648 85.7542 416.725 85.5775 416.878 85.4375C417.032 85.2908 417.222 85.2175 417.448 85.2175C417.675 85.2175 417.865 85.2875 418.018 85.4275C418.172 85.5608 418.248 85.7308 418.248 85.9375C418.248 86.1575 418.172 86.3442 418.018 86.4975C417.872 86.6442 417.682 86.7175 417.448 86.7175ZM424.079 91.9375V92.9375H419.469V92.1475L422.399 88.5975H419.529V87.5975H423.999V88.3875L421.059 91.9375H424.079Z" fill="white"/>
<path d="M58.9899 88.4456V92.6825H57.9656V92.1472C57.8348 92.3307 57.6629 92.476 57.4498 92.5831C57.2416 92.6851 57.014 92.7361 56.767 92.7361C56.4522 92.7361 56.1737 92.6672 55.9316 92.5296C55.6894 92.3868 55.4981 92.1803 55.3577 91.9101C55.2221 91.6348 55.1543 91.3085 55.1543 90.9311V88.4456H56.1713V90.7782C56.1713 91.1147 56.2512 91.3747 56.411 91.5583C56.5708 91.7367 56.7888 91.826 57.0648 91.826C57.3457 91.826 57.566 91.7367 57.7259 91.5583C57.8857 91.3747 57.9656 91.1147 57.9656 90.7782V88.4456H58.9899ZM60.5454 87.9408C60.3662 87.9408 60.2161 87.8822 60.095 87.7649C59.9787 87.6425 59.9206 87.4921 59.9206 87.3137C59.9206 87.1352 59.9787 86.9874 60.095 86.8701C60.2161 86.7477 60.3662 86.6865 60.5454 86.6865C60.7246 86.6865 60.8723 86.7477 60.9885 86.8701C61.1096 86.9874 61.1701 87.1352 61.1701 87.3137C61.1701 87.4921 61.1096 87.6425 60.9885 87.7649C60.8723 87.8822 60.7246 87.9408 60.5454 87.9408ZM61.0466 88.4456V92.6825H60.0296V88.4456H61.0466ZM63.0175 91.803H64.8118V92.6825H61.8625V91.8183L63.6205 89.3251H61.8698V88.4456H64.79V89.3098L63.0175 91.803Z" fill="#25282B"/>
<path d="M68.5114 89.9443C68.7972 90.0004 69.032 90.1508 69.2161 90.3955C69.4001 90.6403 69.4921 90.9207 69.4921 91.2368C69.4921 91.5224 69.4243 91.7747 69.2887 91.994C69.158 92.2081 68.9667 92.3764 68.7148 92.4987C68.463 92.6211 68.1652 92.6823 67.8213 92.6823H65.6348V87.344H67.7269C68.0707 87.344 68.3661 87.4026 68.6131 87.5199C68.8649 87.6372 69.0538 87.8003 69.1797 88.0094C69.3105 88.2184 69.3759 88.4555 69.3759 88.7206C69.3759 89.0316 69.296 89.2917 69.1362 89.5007C68.9812 89.7098 68.7729 89.8576 68.5114 89.9443ZM66.6518 89.5466H67.5816C67.8238 89.5466 68.0102 89.4905 68.141 89.3784C68.2717 89.2611 68.3371 89.0954 68.3371 88.8812C68.3371 88.6671 68.2717 88.5014 68.141 88.3841C68.0102 88.2668 67.8238 88.2082 67.5816 88.2082H66.6518V89.5466ZM67.676 91.8104C67.923 91.8104 68.1143 91.7492 68.2499 91.6269C68.3904 91.5045 68.4606 91.3312 68.4606 91.1068C68.4606 90.8774 68.3879 90.6989 68.2427 90.5714C68.0974 90.4389 67.9012 90.3726 67.6542 90.3726H66.6518V91.8104H67.676ZM74.0801 90.472C74.0801 90.625 74.0704 90.7626 74.051 90.885H71.109C71.1332 91.1909 71.2349 91.4306 71.4141 91.6039C71.5933 91.7773 71.8136 91.864 72.0752 91.864C72.4529 91.864 72.7217 91.6931 72.8815 91.3515H73.9784C73.8622 91.7594 73.6394 92.096 73.3101 92.3611C72.9808 92.6211 72.5764 92.7511 72.097 92.7511C71.7095 92.7511 71.3608 92.6619 71.0509 92.4834C70.7458 92.2999 70.5061 92.0424 70.3317 91.711C70.1622 91.3796 70.0775 90.9972 70.0775 90.5638C70.0775 90.1253 70.1622 89.7404 70.3317 89.4089C70.5012 89.0775 70.7385 88.8226 71.0436 88.6442C71.3487 88.4657 71.6998 88.3765 72.097 88.3765C72.4795 88.3765 72.8209 88.4632 73.1212 88.6365C73.4263 88.8098 73.6612 89.0571 73.8259 89.3784C73.9953 89.6945 74.0801 90.059 74.0801 90.472ZM73.0268 90.1661C73.0219 89.8908 72.9275 89.6715 72.7435 89.5084C72.5594 89.3401 72.3342 89.256 72.0679 89.256C71.816 89.256 71.603 89.3376 71.4286 89.5007C71.2591 89.6588 71.155 89.8806 71.1163 90.1661H73.0268ZM78.5998 90.472C78.5998 90.625 78.5902 90.7626 78.5708 90.885H75.6287C75.653 91.1909 75.7547 91.4306 75.9338 91.6039C76.1131 91.7773 76.3334 91.864 76.5949 91.864C76.9726 91.864 77.2414 91.6931 77.4012 91.3515H78.4981C78.3819 91.7594 78.1592 92.096 77.8298 92.3611C77.5005 92.6211 77.0961 92.7511 76.6167 92.7511C76.2293 92.7511 75.8806 92.6619 75.5706 92.4834C75.2655 92.2999 75.0258 92.0424 74.8515 91.711C74.682 91.3796 74.5972 90.9972 74.5972 90.5638C74.5972 90.1253 74.682 89.7404 74.8515 89.4089C75.021 89.0775 75.2583 88.8226 75.5634 88.6442C75.8685 88.4657 76.2196 88.3765 76.6167 88.3765C76.9993 88.3765 77.3407 88.4632 77.641 88.6365C77.9461 88.8098 78.181 89.0571 78.3456 89.3784C78.5151 89.6945 78.5998 90.059 78.5998 90.472ZM77.5465 90.1661C77.5417 89.8908 77.4473 89.6715 77.2632 89.5084C77.0792 89.3401 76.854 89.256 76.5876 89.256C76.3358 89.256 76.1227 89.3376 75.9484 89.5007C75.7789 89.6588 75.6748 89.8806 75.636 90.1661H77.5465Z" fill="#5D5FEF"/>
<path d="M52.5095 90.0057C53.3119 90.0057 53.9624 89.3209 53.9624 88.4761C53.9624 87.6314 53.3119 86.9465 52.5095 86.9465C51.7071 86.9465 51.0566 87.6314 51.0566 88.4761C51.0566 89.3209 51.7071 90.0057 52.5095 90.0057Z" fill="#5D5FEF"/>
<path fill-rule="evenodd" clip-rule="evenodd" d="M50.4463 93.7683L51.9864 95.7109H54.5143L52.1898 92.9577C52.8484 92.4682 53.3666 91.836 53.7443 91.061C53.7999 90.9483 53.8515 90.8339 53.8992 90.7178C53.4997 90.9929 53.0223 91.1527 52.5094 91.1527C52.1442 91.1527 51.797 91.0717 51.4832 90.9257C51.2764 91.194 51.0325 91.4175 50.7514 91.5963C50.2865 91.8819 49.749 92.0246 49.1388 92.0246C48.5286 92.0246 47.9861 91.8819 47.5115 91.5963C47.0466 91.3006 46.6834 90.8825 46.4219 90.3421C46.1604 89.8016 46.0296 89.1745 46.0296 88.4607C46.0296 87.7468 46.1604 87.1248 46.4219 86.5945C46.6834 86.0541 47.0466 85.6411 47.5115 85.3556C47.9861 85.0701 48.5286 84.9273 49.1388 84.9273C49.749 84.9273 50.2865 85.0701 50.7514 85.3556C51.0359 85.5303 51.2822 85.7526 51.4905 86.0227C51.8025 85.8789 52.147 85.7992 52.5094 85.7992C53.0265 85.7992 53.5075 85.9617 53.9089 86.2408C53.8272 86.0422 53.7337 85.8491 53.6281 85.6615C53.1728 84.8253 52.5481 84.1727 51.7539 83.7036C50.9694 83.2345 50.0976 83 49.1388 83C48.1895 83 47.3178 83.2345 46.5236 83.7036C45.7294 84.1727 45.0998 84.8253 44.6349 85.6615C44.17 86.4875 43.9375 87.4205 43.9375 88.4607C43.9375 89.511 44.17 90.4542 44.6349 91.2904C45.0998 92.1164 45.7294 92.7639 46.5236 93.233C47.3178 93.7021 48.1895 93.9366 49.1388 93.9366C49.5843 93.9366 50.0201 93.8805 50.4463 93.7683Z" fill="#25282B"/>
<path d="M102.598 84.636V93H101.506V89.208H97.2461V93H96.1541V84.636H97.2461V88.308H101.506V84.636H102.598ZM110.563 89.46C110.563 89.668 110.551 89.888 110.527 90.12H105.271C105.311 90.768 105.531 91.276 105.931 91.644C106.339 92.004 106.831 92.184 107.407 92.184C107.879 92.184 108.271 92.076 108.583 91.86C108.903 91.636 109.127 91.34 109.255 90.972H110.431C110.255 91.604 109.903 92.12 109.375 92.52C108.847 92.912 108.191 93.108 107.407 93.108C106.783 93.108 106.223 92.968 105.727 92.688C105.239 92.408 104.855 92.012 104.575 91.5C104.295 90.98 104.155 90.38 104.155 89.7C104.155 89.02 104.291 88.424 104.563 87.912C104.835 87.4 105.215 87.008 105.703 86.736C106.199 86.456 106.767 86.316 107.407 86.316C108.031 86.316 108.583 86.452 109.063 86.724C109.543 86.996 109.911 87.372 110.167 87.852C110.431 88.324 110.563 88.86 110.563 89.46ZM109.435 89.232C109.435 88.816 109.343 88.46 109.159 88.164C108.975 87.86 108.723 87.632 108.403 87.48C108.091 87.32 107.743 87.24 107.359 87.24C106.807 87.24 106.335 87.416 105.943 87.768C105.559 88.12 105.339 88.608 105.283 89.232H109.435ZM117.768 86.424L113.808 96.096H112.68L113.976 92.928L111.324 86.424H112.536L114.6 91.752L116.64 86.424H117.768ZM120.094 91.488L118.75 94.716H118.018L118.894 91.488H120.094ZM129.892 84.636V85.524H127.612V93H126.52V85.524H124.228V84.636H129.892ZM130.928 89.688C130.928 89.016 131.064 88.428 131.336 87.924C131.608 87.412 131.98 87.016 132.452 86.736C132.932 86.456 133.464 86.316 134.048 86.316C134.624 86.316 135.124 86.44 135.548 86.688C135.972 86.936 136.288 87.248 136.496 87.624V86.424H137.6V93H136.496V91.776C136.28 92.16 135.956 92.48 135.524 92.736C135.1 92.984 134.604 93.108 134.036 93.108C133.452 93.108 132.924 92.964 132.452 92.676C131.98 92.388 131.608 91.984 131.336 91.464C131.064 90.944 130.928 90.352 130.928 89.688ZM136.496 89.7C136.496 89.204 136.396 88.772 136.196 88.404C135.996 88.036 135.724 87.756 135.38 87.564C135.044 87.364 134.672 87.264 134.264 87.264C133.856 87.264 133.484 87.36 133.148 87.552C132.812 87.744 132.544 88.024 132.344 88.392C132.144 88.76 132.044 89.192 132.044 89.688C132.044 90.192 132.144 90.632 132.344 91.008C132.544 91.376 132.812 91.66 133.148 91.86C133.484 92.052 133.856 92.148 134.264 92.148C134.672 92.148 135.044 92.052 135.38 91.86C135.724 91.66 135.996 91.376 136.196 91.008C136.396 90.632 136.496 90.196 136.496 89.7ZM143.217 93L140.637 90.096V93H139.545V84.12H140.637V89.34L143.169 86.424H144.693L141.597 89.7L144.705 93H143.217ZM151.821 89.46C151.821 89.668 151.809 89.888 151.785 90.12H146.529C146.569 90.768 146.789 91.276 147.189 91.644C147.597 92.004 148.089 92.184 148.665 92.184C149.137 92.184 149.529 92.076 149.841 91.86C150.161 91.636 150.385 91.34 150.513 90.972H151.689C151.513 91.604 151.161 92.12 150.633 92.52C150.105 92.912 149.449 93.108 148.665 93.108C148.041 93.108 147.481 92.968 146.985 92.688C146.497 92.408 146.113 92.012 145.833 91.5C145.553 90.98 145.413 90.38 145.413 89.7C145.413 89.02 145.549 88.424 145.821 87.912C146.093 87.4 146.473 87.008 146.961 86.736C147.457 86.456 148.025 86.316 148.665 86.316C149.289 86.316 149.841 86.452 150.321 86.724C150.801 86.996 151.169 87.372 151.425 87.852C151.689 88.324 151.821 88.86 151.821 89.46ZM150.693 89.232C150.693 88.816 150.601 88.46 150.417 88.164C150.233 87.86 149.981 87.632 149.661 87.48C149.349 87.32 149.001 87.24 148.617 87.24C148.065 87.24 147.593 87.416 147.201 87.768C146.817 88.12 146.597 88.608 146.541 89.232H150.693ZM156.254 89.688C156.254 89.016 156.39 88.428 156.662 87.924C156.934 87.412 157.306 87.016 157.778 86.736C158.258 86.456 158.79 86.316 159.374 86.316C159.95 86.316 160.45 86.44 160.874 86.688C161.298 86.936 161.614 87.248 161.822 87.624V86.424H162.926V93H161.822V91.776C161.606 92.16 161.282 92.48 160.85 92.736C160.426 92.984 159.93 93.108 159.362 93.108C158.778 93.108 158.25 92.964 157.778 92.676C157.306 92.388 156.934 91.984 156.662 91.464C156.39 90.944 156.254 90.352 156.254 89.688ZM161.822 89.7C161.822 89.204 161.722 88.772 161.522 88.404C161.322 88.036 161.05 87.756 160.706 87.564C160.37 87.364 159.998 87.264 159.59 87.264C159.182 87.264 158.81 87.36 158.474 87.552C158.138 87.744 157.87 88.024 157.67 88.392C157.47 88.76 157.37 89.192 157.37 89.688C157.37 90.192 157.47 90.632 157.67 91.008C157.87 91.376 158.138 91.66 158.474 91.86C158.81 92.052 159.182 92.148 159.59 92.148C159.998 92.148 160.37 92.052 160.706 91.86C161.05 91.66 161.322 91.376 161.522 91.008C161.722 90.632 161.822 90.196 161.822 89.7ZM167.762 89.688C167.762 89.016 167.898 88.428 168.17 87.924C168.442 87.412 168.814 87.016 169.286 86.736C169.766 86.456 170.302 86.316 170.894 86.316C171.462 86.316 171.958 86.444 172.382 86.7C172.814 86.948 173.13 87.256 173.33 87.624V86.424H174.434V96.12H173.33V91.788C173.122 92.156 172.802 92.468 172.37 92.724C171.938 92.98 171.434 93.108 170.858 93.108C170.282 93.108 169.758 92.964 169.286 92.676C168.814 92.388 168.442 91.984 168.17 91.464C167.898 90.944 167.762 90.352 167.762 89.688ZM173.33 89.7C173.33 89.204 173.23 88.772 173.03 88.404C172.83 88.036 172.558 87.756 172.214 87.564C171.878 87.364 171.506 87.264 171.098 87.264C170.69 87.264 170.318 87.36 169.982 87.552C169.646 87.744 169.378 88.024 169.178 88.392C168.978 88.76 168.878 89.192 168.878 89.688C168.878 90.192 168.978 90.632 169.178 91.008C169.378 91.376 169.646 91.66 169.982 91.86C170.318 92.052 170.69 92.148 171.098 92.148C171.506 92.148 171.878 92.052 172.214 91.86C172.558 91.66 172.83 91.376 173.03 91.008C173.23 90.632 173.33 90.196 173.33 89.7ZM182.212 86.424V93H181.12V92.028C180.912 92.364 180.62 92.628 180.244 92.82C179.876 93.004 179.468 93.096 179.02 93.096C178.508 93.096 178.048 92.992 177.64 92.784C177.232 92.568 176.908 92.248 176.668 91.824C176.436 91.4 176.32 90.884 176.32 90.276V86.424H177.4V90.132C177.4 90.78 177.564 91.28 177.892 91.632C178.22 91.976 178.668 92.148 179.236 92.148C179.82 92.148 180.28 91.968 180.616 91.608C180.952 91.248 181.12 90.724 181.12 90.036V86.424H182.212ZM184.72 85.356C184.512 85.356 184.336 85.284 184.192 85.14C184.048 84.996 183.976 84.82 183.976 84.612C183.976 84.404 184.048 84.228 184.192 84.084C184.336 83.94 184.512 83.868 184.72 83.868C184.92 83.868 185.088 83.94 185.224 84.084C185.368 84.228 185.44 84.404 185.44 84.612C185.44 84.82 185.368 84.996 185.224 85.14C185.088 85.284 184.92 85.356 184.72 85.356ZM185.248 86.424V93H184.156V86.424H185.248ZM188.025 92.1H191.253V93H186.777V92.1L189.969 87.312H186.801V86.424H191.229V87.312L188.025 92.1ZM195.661 89.688C195.661 89.016 195.797 88.428 196.069 87.924C196.341 87.412 196.713 87.016 197.185 86.736C197.665 86.456 198.197 86.316 198.781 86.316C199.357 86.316 199.857 86.44 200.281 86.688C200.705 86.936 201.021 87.248 201.229 87.624V86.424H202.333V93H201.229V91.776C201.013 92.16 200.689 92.48 200.257 92.736C199.833 92.984 199.337 93.108 198.769 93.108C198.185 93.108 197.657 92.964 197.185 92.676C196.713 92.388 196.341 91.984 196.069 91.464C195.797 90.944 195.661 90.352 195.661 89.688ZM201.229 89.7C201.229 89.204 201.129 88.772 200.929 88.404C200.729 88.036 200.457 87.756 200.113 87.564C199.777 87.364 199.405 87.264 198.997 87.264C198.589 87.264 198.217 87.36 197.881 87.552C197.545 87.744 197.277 88.024 197.077 88.392C196.877 88.76 196.777 89.192 196.777 89.688C196.777 90.192 196.877 90.632 197.077 91.008C197.277 91.376 197.545 91.66 197.881 91.86C198.217 92.052 198.589 92.148 198.997 92.148C199.405 92.148 199.777 92.052 200.113 91.86C200.457 91.66 200.729 91.376 200.929 91.008C201.129 90.632 201.229 90.196 201.229 89.7ZM207.482 86.304C208.282 86.304 208.93 86.548 209.426 87.036C209.922 87.516 210.17 88.212 210.17 89.124V93H209.09V89.28C209.09 88.624 208.926 88.124 208.598 87.78C208.27 87.428 207.822 87.252 207.254 87.252C206.678 87.252 206.218 87.432 205.874 87.792C205.538 88.152 205.37 88.676 205.37 89.364V93H204.278V86.424H205.37V87.36C205.586 87.024 205.878 86.764 206.246 86.58C206.622 86.396 207.034 86.304 207.482 86.304ZM211.646 89.688C211.646 89.016 211.782 88.428 212.054 87.924C212.326 87.412 212.698 87.016 213.17 86.736C213.65 86.456 214.186 86.316 214.778 86.316C215.29 86.316 215.766 86.436 216.206 86.676C216.646 86.908 216.982 87.216 217.214 87.6V84.12H218.318V93H217.214V91.764C216.998 92.156 216.678 92.48 216.254 92.736C215.83 92.984 215.334 93.108 214.766 93.108C214.182 93.108 213.65 92.964 213.17 92.676C212.698 92.388 212.326 91.984 212.054 91.464C211.782 90.944 211.646 90.352 211.646 89.688ZM217.214 89.7C217.214 89.204 217.114 88.772 216.914 88.404C216.714 88.036 216.442 87.756 216.098 87.564C215.762 87.364 215.39 87.264 214.982 87.264C214.574 87.264 214.202 87.36 213.866 87.552C213.53 87.744 213.262 88.024 213.062 88.392C212.862 88.76 212.762 89.192 212.762 89.688C212.762 90.192 212.862 90.632 213.062 91.008C213.262 91.376 213.53 91.66 213.866 91.86C214.202 92.052 214.574 92.148 214.982 92.148C215.39 92.148 215.762 92.052 216.098 91.86C216.442 91.66 216.714 91.376 216.914 91.008C217.114 90.632 217.214 90.196 217.214 89.7ZM226.275 86.316C226.843 86.316 227.339 86.44 227.763 86.688C228.195 86.936 228.515 87.248 228.723 87.624V86.424H229.827V93.144C229.827 93.744 229.699 94.276 229.443 94.74C229.187 95.212 228.819 95.58 228.339 95.844C227.867 96.108 227.315 96.24 226.683 96.24C225.819 96.24 225.099 96.036 224.523 95.628C223.947 95.22 223.607 94.664 223.503 93.96H224.583C224.703 94.36 224.951 94.68 225.327 94.92C225.703 95.168 226.155 95.292 226.683 95.292C227.283 95.292 227.771 95.104 228.147 94.728C228.531 94.352 228.723 93.824 228.723 93.144V91.764C228.507 92.148 228.187 92.468 227.763 92.724C227.339 92.98 226.843 93.108 226.275 93.108C225.691 93.108 225.159 92.964 224.679 92.676C224.207 92.388 223.835 91.984 223.563 91.464C223.291 90.944 223.155 90.352 223.155 89.688C223.155 89.016 223.291 88.428 223.563 87.924C223.835 87.412 224.207 87.016 224.679 86.736C225.159 86.456 225.691 86.316 226.275 86.316ZM228.723 89.7C228.723 89.204 228.623 88.772 228.423 88.404C228.223 88.036 227.951 87.756 227.607 87.564C227.271 87.364 226.899 87.264 226.491 87.264C226.083 87.264 225.711 87.36 225.375 87.552C225.039 87.744 224.771 88.024 224.571 88.392C224.371 88.76 224.271 89.192 224.271 89.688C224.271 90.192 224.371 90.632 224.571 91.008C224.771 91.376 225.039 91.66 225.375 91.86C225.711 92.052 226.083 92.148 226.491 92.148C226.899 92.148 227.271 92.052 227.607 91.86C227.951 91.66 228.223 91.376 228.423 91.008C228.623 90.632 228.723 90.196 228.723 89.7ZM237.772 89.46C237.772 89.668 237.76 89.888 237.736 90.12H232.48C232.52 90.768 232.74 91.276 233.14 91.644C233.548 92.004 234.04 92.184 234.616 92.184C235.088 92.184 235.48 92.076 235.792 91.86C236.112 91.636 236.336 91.34 236.464 90.972H237.64C237.464 91.604 237.112 92.12 236.584 92.52C236.056 92.912 235.4 93.108 234.616 93.108C233.992 93.108 233.432 92.968 232.936 92.688C232.448 92.408 232.064 92.012 231.784 91.5C231.504 90.98 231.364 90.38 231.364 89.7C231.364 89.02 231.5 88.424 231.772 87.912C232.044 87.4 232.424 87.008 232.912 86.736C233.408 86.456 233.976 86.316 234.616 86.316C235.24 86.316 235.792 86.452 236.272 86.724C236.752 86.996 237.12 87.372 237.376 87.852C237.64 88.324 237.772 88.86 237.772 89.46ZM236.644 89.232C236.644 88.816 236.552 88.46 236.368 88.164C236.184 87.86 235.932 87.632 235.612 87.48C235.3 87.32 234.952 87.24 234.568 87.24C234.016 87.24 233.544 87.416 233.152 87.768C232.768 88.12 232.548 88.608 232.492 89.232H236.644ZM240.645 87.324V91.2C240.645 91.52 240.713 91.748 240.849 91.884C240.985 92.012 241.221 92.076 241.557 92.076H242.361V93H241.377C240.769 93 240.313 92.86 240.009 92.58C239.705 92.3 239.553 91.84 239.553 91.2V87.324H238.701V86.424H239.553V84.768H240.645V86.424H242.361V87.324H240.645ZM246.676 89.7C246.676 89.02 246.812 88.428 247.084 87.924C247.356 87.412 247.732 87.016 248.212 86.736C248.7 86.456 249.256 86.316 249.88 86.316C250.688 86.316 251.352 86.512 251.872 86.904C252.4 87.296 252.748 87.84 252.916 88.536H251.74C251.628 88.136 251.408 87.82 251.08 87.588C250.76 87.356 250.36 87.24 249.88 87.24C249.256 87.24 248.752 87.456 248.368 87.888C247.984 88.312 247.792 88.916 247.792 89.7C247.792 90.492 247.984 91.104 248.368 91.536C248.752 91.968 249.256 92.184 249.88 92.184C250.36 92.184 250.76 92.072 251.08 91.848C251.4 91.624 251.62 91.304 251.74 90.888H252.916C252.74 91.56 252.388 92.1 251.86 92.508C251.332 92.908 250.672 93.108 249.88 93.108C249.256 93.108 248.7 92.968 248.212 92.688C247.732 92.408 247.356 92.012 247.084 91.5C246.812 90.988 246.676 90.388 246.676 89.7ZM257.737 86.304C258.233 86.304 258.681 86.412 259.081 86.628C259.481 86.836 259.793 87.152 260.017 87.576C260.249 88 260.365 88.516 260.365 89.124V93H259.285V89.28C259.285 88.624 259.121 88.124 258.793 87.78C258.465 87.428 258.017 87.252 257.449 87.252C256.873 87.252 256.413 87.432 256.069 87.792C255.733 88.152 255.565 88.676 255.565 89.364V93H254.473V84.12H255.565V87.36C255.781 87.024 256.077 86.764 256.453 86.58C256.837 86.396 257.265 86.304 257.737 86.304ZM261.841 89.688C261.841 89.016 261.977 88.428 262.249 87.924C262.521 87.412 262.893 87.016 263.365 86.736C263.845 86.456 264.377 86.316 264.961 86.316C265.537 86.316 266.037 86.44 266.461 86.688C266.885 86.936 267.201 87.248 267.409 87.624V86.424H268.513V93H267.409V91.776C267.193 92.16 266.869 92.48 266.437 92.736C266.013 92.984 265.517 93.108 264.949 93.108C264.365 93.108 263.837 92.964 263.365 92.676C262.893 92.388 262.521 91.984 262.249 91.464C261.977 90.944 261.841 90.352 261.841 89.688ZM267.409 89.7C267.409 89.204 267.309 88.772 267.109 88.404C266.909 88.036 266.637 87.756 266.293 87.564C265.957 87.364 265.585 87.264 265.177 87.264C264.769 87.264 264.397 87.36 264.061 87.552C263.725 87.744 263.457 88.024 263.257 88.392C263.057 88.76 262.957 89.192 262.957 89.688C262.957 90.192 263.057 90.632 263.257 91.008C263.457 91.376 263.725 91.66 264.061 91.86C264.397 92.052 264.769 92.148 265.177 92.148C265.585 92.148 265.957 92.052 266.293 91.86C266.637 91.66 266.909 91.376 267.109 91.008C267.309 90.632 267.409 90.196 267.409 89.7ZM273.662 86.304C274.462 86.304 275.11 86.548 275.606 87.036C276.102 87.516 276.35 88.212 276.35 89.124V93H275.27V89.28C275.27 88.624 275.106 88.124 274.778 87.78C274.45 87.428 274.002 87.252 273.434 87.252C272.858 87.252 272.398 87.432 272.054 87.792C271.718 88.152 271.55 88.676 271.55 89.364V93H270.458V86.424H271.55V87.36C271.766 87.024 272.058 86.764 272.426 86.58C272.802 86.396 273.214 86.304 273.662 86.304ZM277.826 89.7C277.826 89.02 277.962 88.428 278.234 87.924C278.506 87.412 278.882 87.016 279.362 86.736C279.85 86.456 280.406 86.316 281.03 86.316C281.838 86.316 282.502 86.512 283.022 86.904C283.55 87.296 283.898 87.84 284.066 88.536H282.89C282.778 88.136 282.558 87.82 282.23 87.588C281.91 87.356 281.51 87.24 281.03 87.24C280.406 87.24 279.902 87.456 279.518 87.888C279.134 88.312 278.942 88.916 278.942 89.7C278.942 90.492 279.134 91.104 279.518 91.536C279.902 91.968 280.406 92.184 281.03 92.184C281.51 92.184 281.91 92.072 282.23 91.848C282.55 91.624 282.77 91.304 282.89 90.888H284.066C283.89 91.56 283.538 92.1 283.01 92.508C282.482 92.908 281.822 93.108 281.03 93.108C280.406 93.108 279.85 92.968 279.362 92.688C278.882 92.408 278.506 92.012 278.234 91.5C277.962 90.988 277.826 90.388 277.826 89.7ZM291.623 89.46C291.623 89.668 291.611 89.888 291.587 90.12H286.331C286.371 90.768 286.591 91.276 286.991 91.644C287.399 92.004 287.891 92.184 288.467 92.184C288.939 92.184 289.331 92.076 289.643 91.86C289.963 91.636 290.187 91.34 290.315 90.972H291.491C291.315 91.604 290.963 92.12 290.435 92.52C289.907 92.912 289.251 93.108 288.467 93.108C287.843 93.108 287.283 92.968 286.787 92.688C286.299 92.408 285.915 92.012 285.635 91.5C285.355 90.98 285.215 90.38 285.215 89.7C285.215 89.02 285.351 88.424 285.623 87.912C285.895 87.4 286.275 87.008 286.763 86.736C287.259 86.456 287.827 86.316 288.467 86.316C289.091 86.316 289.643 86.452 290.123 86.724C290.603 86.996 290.971 87.372 291.227 87.852C291.491 88.324 291.623 88.86 291.623 89.46ZM290.495 89.232C290.495 88.816 290.403 88.46 290.219 88.164C290.035 87.86 289.783 87.632 289.463 87.48C289.151 87.32 288.803 87.24 288.419 87.24C287.867 87.24 287.395 87.416 287.003 87.768C286.619 88.12 286.399 88.608 286.343 89.232H290.495ZM297.795 87.324V91.2C297.795 91.52 297.863 91.748 297.999 91.884C298.135 92.012 298.371 92.076 298.707 92.076H299.511V93H298.527C297.919 93 297.463 92.86 297.159 92.58C296.855 92.3 296.703 91.84 296.703 91.2V87.324H295.851V86.424H296.703V84.768H297.795V86.424H299.511V87.324H297.795ZM303.803 93.108C303.187 93.108 302.627 92.968 302.123 92.688C301.627 92.408 301.235 92.012 300.947 91.5C300.667 90.98 300.527 90.38 300.527 89.7C300.527 89.028 300.671 88.436 300.959 87.924C301.255 87.404 301.655 87.008 302.159 86.736C302.663 86.456 303.227 86.316 303.851 86.316C304.475 86.316 305.039 86.456 305.543 86.736C306.047 87.008 306.443 87.4 306.731 87.912C307.027 88.424 307.175 89.02 307.175 89.7C307.175 90.38 307.023 90.98 306.719 91.5C306.423 92.012 306.019 92.408 305.507 92.688C304.995 92.968 304.427 93.108 303.803 93.108ZM303.803 92.148C304.195 92.148 304.563 92.056 304.907 91.872C305.251 91.688 305.527 91.412 305.735 91.044C305.951 90.676 306.059 90.228 306.059 89.7C306.059 89.172 305.955 88.724 305.747 88.356C305.539 87.988 305.267 87.716 304.931 87.54C304.595 87.356 304.231 87.264 303.839 87.264C303.439 87.264 303.071 87.356 302.735 87.54C302.407 87.716 302.143 87.988 301.943 88.356C301.743 88.724 301.643 89.172 301.643 89.7C301.643 90.236 301.739 90.688 301.931 91.056C302.131 91.424 302.395 91.7 302.723 91.884C303.051 92.06 303.411 92.148 303.803 92.148ZM320.77 86.424L318.718 93H317.59L316.006 87.78L314.422 93H313.294L311.23 86.424H312.346L313.858 91.944L315.49 86.424H316.606L318.202 91.956L319.69 86.424H320.77ZM322.517 85.356C322.309 85.356 322.133 85.284 321.989 85.14C321.845 84.996 321.773 84.82 321.773 84.612C321.773 84.404 321.845 84.228 321.989 84.084C322.133 83.94 322.309 83.868 322.517 83.868C322.717 83.868 322.885 83.94 323.021 84.084C323.165 84.228 323.237 84.404 323.237 84.612C323.237 84.82 323.165 84.996 323.021 85.14C322.885 85.284 322.717 85.356 322.517 85.356ZM323.045 86.424V93H321.953V86.424H323.045ZM328.21 86.304C329.01 86.304 329.658 86.548 330.154 87.036C330.65 87.516 330.898 88.212 330.898 89.124V93H329.818V89.28C329.818 88.624 329.654 88.124 329.326 87.78C328.998 87.428 328.55 87.252 327.982 87.252C327.406 87.252 326.946 87.432 326.602 87.792C326.266 88.152 326.098 88.676 326.098 89.364V93H325.006V86.424H326.098V87.36C326.314 87.024 326.606 86.764 326.974 86.58C327.35 86.396 327.762 86.304 328.21 86.304Z" fill="#25282B"/>
<defs>
<filter id="filter0_d_463_5472" x="0.410156" y="0.40625" width="480.179" height="99.875" filterUnits="userSpaceOnUse" color-interpolation-filters="sRGB">
<feFlood flood-opacity="0" result="BackgroundImageFix"/>
<feColorMatrix in="SourceAlpha" type="matrix" values="0 0 0 0 0 0 0 0 0 0 0 0 0 0 0 0 0 0 127 0" result="hardAlpha"/>
<feOffset dy="5"/>
<feGaussianBlur stdDeviation="15"/>
<feColorMatrix type="matrix" values="0 0 0 0 0.364706 0 0 0 0 0.372549 0 0 0 0 0.937255 0 0 0 0.2 0"/>
<feBlend mode="normal" in2="BackgroundImageFix" result="effect1_dropShadow_463_5472"/>
<feBlend mode="normal" in="SourceGraphic" in2="effect1_dropShadow_463_5472" result="shape"/>
</filter>
<filter id="filter1_d_463_5472" x="0.410156" y="40.2812" width="480.179" height="109.844" filterUnits="userSpaceOnUse" color-interpolation-filters="sRGB">
<feFlood flood-opacity="0" result="BackgroundImageFix"/>
<feColorMatrix in="SourceAlpha" type="matrix" values="0 0 0 0 0 0 0 0 0 0 0 0 0 0 0 0 0 0 127 0" result="hardAlpha"/>
<feOffset dy="5"/>
<feGaussianBlur stdDeviation="15"/>
<feColorMatrix type="matrix" values="0 0 0 0 0.364706 0 0 0 0 0.372549 0 0 0 0 0.937255 0 0 0 0.2 0"/>
<feBlend mode="normal" in2="BackgroundImageFix" result="effect1_dropShadow_463_5472"/>
<feBlend mode="normal" in="SourceGraphic" in2="effect1_dropShadow_463_5472" result="shape"/>
</filter>
<filter id="filter2_d_463_5472" x="330.431" y="51.9375" width="136" height="84" filterUnits="userSpaceOnUse" color-interpolation-filters="sRGB">
<feFlood flood-opacity="0" result="BackgroundImageFix"/>
<feColorMatrix in="SourceAlpha" type="matrix" values="0 0 0 0 0 0 0 0 0 0 0 0 0 0 0 0 0 0 127 0" result="hardAlpha"/>
<feOffset dy="5"/>
<feGaussianBlur stdDeviation="15"/>
<feColorMatrix type="matrix" values="0 0 0 0 0.364706 0 0 0 0 0.372549 0 0 0 0 0.937255 0 0 0 0.2 0"/>
<feBlend mode="normal" in2="BackgroundImageFix" result="effect1_dropShadow_463_5472"/>
<feBlend mode="normal" in="SourceGraphic" in2="effect1_dropShadow_463_5472" result="shape"/>
</filter>
</defs>
</svg>
