<svg width="134" height="47" viewBox="0 0 134 47" fill="none" xmlns="http://www.w3.org/2000/svg">
<g clip-path="url(#clip0_467:4043)">
<path d="M57.2472 19.6847V35.0012H53.3515V33.0659C52.8542 33.7294 52.2003 34.2547 51.3899 34.6418C50.5978 35.0105 49.7322 35.1947 48.7928 35.1947C47.5955 35.1947 46.5363 34.9459 45.6155 34.4483C44.6945 33.9322 43.9669 33.1858 43.4328 32.2089C42.917 31.2136 42.6592 30.034 42.6592 28.67V19.6847H46.5272V28.1171C46.5272 29.3336 46.8311 30.2736 47.439 30.9371C48.0468 31.5822 48.8757 31.9047 49.9256 31.9047C50.9938 31.9047 51.832 31.5822 52.4398 30.9371C53.0476 30.2736 53.3515 29.3336 53.3515 28.1171V19.6847H57.2472ZM63.1634 17.86C62.4819 17.86 61.911 17.6481 61.4504 17.2241C61.0083 16.7818 60.7873 16.2381 60.7873 15.593C60.7873 14.9478 61.0083 14.4134 61.4504 13.9894C61.911 13.5471 62.4819 13.3259 63.1634 13.3259C63.845 13.3259 64.4067 13.5471 64.8487 13.9894C65.3093 14.4134 65.5395 14.9478 65.5395 15.593C65.5395 16.2381 65.3093 16.7818 64.8487 17.2241C64.4067 17.6481 63.845 17.86 63.1634 17.86ZM65.0698 19.6847V35.0012H61.2017V19.6847H65.0698ZM72.566 31.8218H79.3904V35.0012H68.173V31.8771L74.8592 22.8642H68.2007V19.6847H79.3075V22.8089L72.566 31.8218Z" fill="#25282B"/>
<path d="M93.4645 25.1035C94.5512 25.3063 95.4445 25.85 96.1445 26.7347C96.8444 27.6194 97.1944 28.6331 97.1944 29.7758C97.1944 30.8081 96.9364 31.7204 96.4208 32.5129C95.9234 33.287 95.1958 33.8953 94.2381 34.3376C93.2803 34.78 92.1475 35.0011 90.8397 35.0011H82.5234V15.7035H90.4806C91.7884 15.7035 92.9119 15.9154 93.8513 16.3394C94.809 16.7633 95.5274 17.3531 96.0063 18.1088C96.5036 18.8645 96.7523 19.7216 96.7523 20.68C96.7523 21.8042 96.4484 22.7442 95.8406 23.5C95.2511 24.2557 94.4591 24.7901 93.4645 25.1035ZM86.3915 23.6658H89.928C90.849 23.6658 91.5581 23.4631 92.0554 23.0576C92.5527 22.6336 92.8014 22.0347 92.8014 21.2606C92.8014 20.4864 92.5527 19.8875 92.0554 19.4635C91.5581 19.0395 90.849 18.8276 89.928 18.8276H86.3915V23.6658ZM90.2872 31.8494C91.2265 31.8494 91.9541 31.6282 92.4698 31.1858C93.004 30.7435 93.2711 30.1169 93.2711 29.3058C93.2711 28.4764 92.9948 27.8313 92.4422 27.3706C91.8896 26.8913 91.1436 26.6517 90.2043 26.6517H86.3915V31.8494H90.2872ZM114.644 27.0111C114.644 27.5641 114.607 28.0617 114.534 28.5041H103.344C103.436 29.61 103.823 30.4763 104.504 31.1029C105.186 31.7295 106.024 32.0429 107.019 32.0429C108.455 32.0429 109.478 31.4254 110.085 30.1906H114.257C113.815 31.6651 112.968 32.8816 111.716 33.84C110.463 34.78 108.925 35.25 107.102 35.25C105.628 35.25 104.302 34.9275 103.123 34.2823C101.963 33.6188 101.051 32.688 100.388 31.49C99.743 30.2919 99.4207 28.9095 99.4207 27.3429C99.4207 25.7578 99.743 24.3663 100.388 23.1682C101.032 21.9701 101.935 21.0486 103.095 20.4035C104.256 19.7583 105.591 19.4358 107.102 19.4358C108.557 19.4358 109.855 19.7492 110.997 20.3758C112.158 21.0025 113.051 21.8964 113.677 23.0576C114.322 24.2004 114.644 25.5182 114.644 27.0111ZM110.638 25.9053C110.62 24.91 110.26 24.1175 109.56 23.5276C108.861 22.9194 108.004 22.6153 106.991 22.6153C106.033 22.6153 105.223 22.9101 104.56 23.5C103.915 24.0713 103.519 24.8731 103.372 25.9053H110.638ZM131.834 27.0111C131.834 27.5641 131.798 28.0617 131.724 28.5041H120.534C120.626 29.61 121.013 30.4763 121.695 31.1029C122.376 31.7295 123.214 32.0429 124.209 32.0429C125.646 32.0429 126.668 31.4254 127.276 30.1906H131.448C131.006 31.6651 130.158 32.8816 128.906 33.84C127.653 34.78 126.115 35.25 124.292 35.25C122.818 35.25 121.492 34.9275 120.313 34.2823C119.153 33.6188 118.241 32.688 117.578 31.49C116.933 30.2919 116.611 28.9095 116.611 27.3429C116.611 25.7578 116.933 24.3663 117.578 23.1682C118.223 21.9701 119.125 21.0486 120.286 20.4035C121.446 19.7583 122.781 19.4358 124.292 19.4358C125.747 19.4358 127.046 19.7492 128.187 20.3758C129.348 21.0025 130.241 21.8964 130.867 23.0576C131.512 24.2004 131.834 25.5182 131.834 27.0111ZM127.828 25.9053C127.81 24.91 127.451 24.1175 126.751 23.5276C126.051 22.9194 125.194 22.6153 124.181 22.6153C123.224 22.6153 122.413 22.9101 121.75 23.5C121.105 24.0713 120.709 24.8731 120.562 25.9053H127.828Z" fill="white"/>
<path d="M32.6019 25.3247C35.6537 25.3247 38.1277 22.8491 38.1277 19.7953C38.1277 16.7415 35.6537 14.2659 32.6019 14.2659C29.5501 14.2659 27.0762 16.7415 27.0762 19.7953C27.0762 22.8491 29.5501 25.3247 32.6019 25.3247Z" fill="white"/>
<path fill-rule="evenodd" clip-rule="evenodd" d="M24.7555 38.927L30.6128 45.9494H40.2277L31.3864 35.9965C33.8914 34.2271 35.8623 31.9416 37.299 29.14C37.5105 28.7326 37.7068 28.319 37.8879 27.8995C36.3687 28.8938 34.5528 29.4718 32.6021 29.4718C31.2132 29.4718 29.8927 29.1788 28.699 28.6512C27.9126 29.6209 26.985 30.4289 25.9159 31.0753C24.1477 32.1075 22.1031 32.6235 19.7823 32.6235C17.4615 32.6235 15.3984 32.1075 13.5934 31.0753C11.8252 30.0063 10.4437 28.4948 9.44908 26.5412C8.45444 24.5875 7.95712 22.3204 7.95712 19.74C7.95712 17.1596 8.45444 14.911 9.44908 12.9941C10.4437 11.0404 11.8252 9.54745 13.5934 8.5153C15.3984 7.48314 17.4615 6.96706 19.7823 6.96706C22.1031 6.96706 24.1477 7.48314 25.9159 8.5153C26.9977 9.14676 27.9348 9.95069 28.727 10.9271C29.9134 10.4073 31.224 10.1188 32.6021 10.1188C34.5687 10.1188 36.3982 10.7063 37.9248 11.7153C37.6144 10.9973 37.2585 10.2993 36.8569 9.62118C35.1254 6.59843 32.7494 4.23921 29.7287 2.54352C26.7448 0.847843 23.4293 0 19.7823 0C16.172 0 12.8566 0.847843 9.83588 2.54352C6.81512 4.23921 4.42063 6.59843 2.65238 9.62118C0.884124 12.6071 0 15.98 0 19.74C0 23.5369 0.884124 26.9466 2.65238 29.9694C4.42063 32.9553 6.81512 35.296 9.83588 36.9918C12.8566 38.6875 16.172 39.5353 19.7823 39.5353C21.4768 39.5353 23.1345 39.3325 24.7555 38.927Z" fill="#25282B"/>
</g>
<defs>
<clipPath id="clip0_467:4043">
<rect width="134" height="47" fill="white"/>
</clipPath>
</defs>
</svg>
