<svg width="17" height="17" viewBox="0 0 17 17" fill="none" xmlns="http://www.w3.org/2000/svg">
<path d="M8.48812 9.19571C8.87878 9.19571 9.19547 8.87902 9.19547 8.48836C9.19547 8.0977 8.87878 7.78101 8.48812 7.78101C8.09745 7.78101 7.78076 8.0977 7.78076 8.48836C7.78076 8.87902 8.09745 9.19571 8.48812 9.19571Z" stroke="#25282B" stroke-width="2" stroke-linecap="round" stroke-linejoin="round"/>
<path d="M8.48812 4.24405C8.87878 4.24405 9.19547 3.92736 9.19547 3.5367C9.19547 3.14604 8.87878 2.82935 8.48812 2.82935C8.09745 2.82935 7.78076 3.14604 7.78076 3.5367C7.78076 3.92736 8.09745 4.24405 8.48812 4.24405Z" stroke="#25282B" stroke-width="2" stroke-linecap="round" stroke-linejoin="round"/>
<path d="M8.48812 14.1471C8.87878 14.1471 9.19547 13.8304 9.19547 13.4398C9.19547 13.0491 8.87878 12.7324 8.48812 12.7324C8.09745 12.7324 7.78076 13.0491 7.78076 13.4398C7.78076 13.8304 8.09745 14.1471 8.48812 14.1471Z" stroke="#25282B" stroke-width="2" stroke-linecap="round" stroke-linejoin="round"/>
</svg>
