<svg width="16" height="17" viewBox="0 0 16 17" fill="none" xmlns="http://www.w3.org/2000/svg">
<g clip-path="url(#clip0_364:8419)">
<path d="M12 6.33179C13.1046 6.33179 14 5.43636 14 4.33179C14 3.22722 13.1046 2.33179 12 2.33179C10.8954 2.33179 10 3.22722 10 4.33179C10 5.43636 10.8954 6.33179 12 6.33179Z" stroke="#52575C" stroke-linecap="round" stroke-linejoin="round"/>
<path d="M4 10.9985C5.10457 10.9985 6 10.1031 6 8.99854C6 7.89397 5.10457 6.99854 4 6.99854C2.89543 6.99854 2 7.89397 2 8.99854C2 10.1031 2.89543 10.9985 4 10.9985Z" stroke="#52575C" stroke-linecap="round" stroke-linejoin="round"/>
<path d="M12 15.6653C13.1046 15.6653 14 14.7699 14 13.6653C14 12.5607 13.1046 11.6653 12 11.6653C10.8954 11.6653 10 12.5607 10 13.6653C10 14.7699 10.8954 15.6653 12 15.6653Z" stroke="#52575C" stroke-linecap="round" stroke-linejoin="round"/>
<path d="M5.72656 10.0051L10.2799 12.6585" stroke="#52575C" stroke-linecap="round" stroke-linejoin="round"/>
<path d="M10.2732 5.33862L5.72656 7.99196" stroke="#52575C" stroke-linecap="round" stroke-linejoin="round"/>
</g>
<defs>
<clipPath id="clip0_364:8419">
<rect width="16" height="16" fill="white" transform="translate(0 0.998535)"/>
</clipPath>
</defs>
</svg>
