<svg width="161" height="131" viewBox="0 0 161 131" fill="none" xmlns="http://www.w3.org/2000/svg">
<path d="M51.0617 130.374C111.369 130.374 144.349 80.4503 144.349 37.1586C144.349 35.7406 144.32 34.3291 144.257 32.9239C150.658 28.2994 156.223 22.5286 160.611 15.9591C154.737 18.5684 148.415 20.3249 141.783 21.1169C148.552 17.0609 153.749 10.6449 156.201 2.99633C149.866 6.74888 142.851 9.47626 135.381 10.9488C129.398 4.58082 120.88 0.5979 111.448 0.5979C93.3421 0.5979 78.6593 15.2698 78.6593 33.3549C78.6593 35.9258 78.947 38.4265 79.5095 40.8251C52.2595 39.455 28.0963 26.4185 11.9249 6.59557C9.1091 11.4371 7.48547 17.0611 7.48547 23.062C7.48547 34.4282 13.2738 44.4624 22.076 50.3326C16.6968 50.1665 11.6436 48.691 7.22699 46.2351C7.22217 46.3725 7.22215 46.5065 7.22215 46.6535C7.22215 62.5197 18.5238 75.7667 33.5262 78.7685C30.7711 79.519 27.8724 79.9214 24.8806 79.9214C22.7712 79.9214 20.716 79.714 18.7185 79.3306C22.8926 92.3478 34.9966 101.82 49.3468 102.085C38.1251 110.874 23.9888 116.109 8.62502 116.109C5.9818 116.109 3.37057 115.958 0.804199 115.655C15.3148 124.949 32.5448 130.371 51.0634 130.371" fill="#1DA1F2"/>
</svg>
