<svg width="35" height="39" viewBox="0 0 35 39" fill="none" xmlns="http://www.w3.org/2000/svg">
<path d="M33.6439 8.07348L25.9862 0.763278C25.844 0.627517 25.6751 0.519827 25.4893 0.446357C25.3035 0.372887 25.1043 0.335076 24.9032 0.335083H9.58772C8.77562 0.335954 7.99704 0.644305 7.42279 1.19249C6.84855 1.74067 6.52554 2.48392 6.52462 3.25916V6.18325H3.46153C2.64943 6.18412 1.87085 6.49247 1.2966 7.04065C0.722361 7.58883 0.39935 8.33208 0.398438 9.10733V35.4241C0.39935 36.1993 0.722361 36.9426 1.2966 37.4907C1.87085 38.0389 2.64943 38.3473 3.46153 38.3481H24.9032C25.7153 38.3473 26.4939 38.0389 27.0681 37.4907C27.6424 36.9426 27.9654 36.1993 27.9663 35.4241V32.5H31.0294C31.8415 32.4991 32.6201 32.1908 33.1943 31.6426C33.7685 31.0944 34.0916 30.3511 34.0925 29.5759V9.10733C34.0925 8.91533 34.0529 8.72521 33.9759 8.54782C33.8989 8.37043 33.7861 8.20925 33.6439 8.07348ZM18.777 31.0379H9.58772C9.18153 31.0379 8.79197 30.8839 8.50475 30.6097C8.21753 30.3355 8.05617 29.9637 8.05617 29.5759C8.05617 29.1881 8.21753 28.8163 8.50475 28.5421C8.79197 28.2679 9.18153 28.1139 9.58772 28.1139H18.777C19.1832 28.1139 19.5727 28.2679 19.86 28.5421C20.1472 28.8163 20.3085 29.1881 20.3085 29.5759C20.3085 29.9637 20.1472 30.3355 19.86 30.6097C19.5727 30.8839 19.1832 31.0379 18.777 31.0379ZM18.777 25.1898H9.58772C9.18153 25.1898 8.79197 25.0357 8.50475 24.7616C8.21753 24.4874 8.05617 24.1155 8.05617 23.7277C8.05617 23.34 8.21753 22.9681 8.50475 22.6939C8.79197 22.4197 9.18153 22.2657 9.58772 22.2657H18.777C19.1832 22.2657 19.5727 22.4197 19.86 22.6939C20.1472 22.9681 20.3085 23.34 20.3085 23.7277C20.3085 24.1155 20.1472 24.4874 19.86 24.7616C19.5727 25.0357 19.1832 25.1898 18.777 25.1898ZM31.0294 29.5759H27.9663V14.9555C27.9663 14.7635 27.9267 14.5734 27.8497 14.396C27.7728 14.2186 27.6599 14.0574 27.5177 13.9216L19.86 6.61144C19.7178 6.47568 19.5489 6.36799 19.3631 6.29452C19.1773 6.22105 18.9781 6.18324 18.777 6.18325H9.58772V3.25916H24.2689L31.0294 9.71298V29.5759Z" fill="#5D5FEF"/>
</svg>
