<svg width="34" height="39" viewBox="0 0 34 39" fill="none" xmlns="http://www.w3.org/2000/svg">
<path d="M7.93393 1.16025C8.026 0.920676 8.20686 0.711681 8.45044 0.563383C8.69402 0.415085 8.98775 0.335145 9.28928 0.335083H25.899C26.1308 0.335124 26.3591 0.382407 26.5641 0.472824C26.7691 0.563241 26.9445 0.694055 27.075 0.853896C27.2056 1.01374 27.2875 1.19777 27.3134 1.39C27.3394 1.58223 27.3086 1.77683 27.2239 1.95691L22.7668 11.4218H32.5428C32.8195 11.4217 33.0901 11.4889 33.3217 11.615C33.5533 11.7412 33.7358 11.921 33.847 12.1323C33.9581 12.3437 33.9931 12.5775 33.9476 12.8051C33.902 13.0328 33.778 13.2444 33.5907 13.4142L6.54062 37.9633C6.32647 38.1581 6.04058 38.2877 5.72821 38.3316C5.41583 38.3756 5.09482 38.3313 4.81597 38.2059C4.53712 38.0805 4.31637 37.8811 4.18866 37.6392C4.06095 37.3973 4.03357 37.1268 4.11086 36.8705L8.41609 22.5085H1.69629C1.47211 22.5084 1.25111 22.4642 1.05129 22.3794C0.851467 22.2946 0.678465 22.1717 0.546368 22.0205C0.414271 21.8694 0.326814 21.6944 0.291116 21.5098C0.255418 21.3251 0.272488 21.136 0.340937 20.9579L7.93393 1.16025Z" fill="#5D5FEF"/>
</svg>
