<svg width="35" height="39" viewBox="0 0 35 39" fill="none" xmlns="http://www.w3.org/2000/svg">
<path d="M13.8172 0.335083C14.2091 0.335083 14.585 0.484652 14.8621 0.750886C15.1393 1.01712 15.2949 1.37821 15.2949 1.75472V6.48686C15.2949 6.86337 15.1393 7.22447 14.8621 7.4907C14.585 7.75693 14.2091 7.9065 13.8172 7.9065C13.4253 7.9065 13.0494 7.75693 12.7723 7.4907C12.4952 7.22447 12.3395 6.86337 12.3395 6.48686V1.75472C12.3395 1.37821 12.4952 1.01712 12.7723 0.750886C13.0494 0.484652 13.4253 0.335083 13.8172 0.335083ZM4.3991 4.06401C4.67618 3.79815 5.05177 3.64883 5.44337 3.64883C5.83497 3.64883 6.21056 3.79815 6.48764 4.06401L9.93569 7.3765C10.0809 7.50647 10.1973 7.6632 10.2781 7.83734C10.3589 8.01148 10.4023 8.19947 10.4058 8.39008C10.4093 8.5807 10.3728 8.77004 10.2985 8.94681C10.2241 9.12358 10.1135 9.28416 9.9732 9.41897C9.83288 9.55377 9.66573 9.66005 9.48172 9.73145C9.29772 9.80285 9.10063 9.83791 8.90221 9.83455C8.7038 9.83119 8.50812 9.78946 8.32685 9.71187C8.14558 9.63428 7.98244 9.52241 7.84715 9.38293L4.3991 6.07043C4.12237 5.80425 3.96693 5.44343 3.96693 5.06722C3.96693 4.69101 4.12237 4.33019 4.3991 4.06401ZM23.2353 4.06401C23.5121 4.33019 23.6675 4.69101 23.6675 5.06722C23.6675 5.44343 23.5121 5.80425 23.2353 6.07043L19.7873 9.38293C19.652 9.52241 19.4888 9.63428 19.3076 9.71187C19.1263 9.78946 18.9306 9.83119 18.7322 9.83455C18.5338 9.83791 18.3367 9.80285 18.1527 9.73145C17.9687 9.66005 17.8015 9.55377 17.6612 9.41897C17.5209 9.28416 17.4103 9.12358 17.336 8.94681C17.2616 8.77004 17.2251 8.5807 17.2286 8.39008C17.2321 8.19947 17.2756 8.01148 17.3563 7.83734C17.4371 7.6632 17.5535 7.50647 17.6987 7.3765L21.1468 4.06401C21.4239 3.79815 21.7995 3.64883 22.1911 3.64883C22.5827 3.64883 22.9582 3.79815 23.2353 4.06401ZM0.517578 13.1119C0.517578 12.7353 0.673268 12.3743 0.950397 12.108C1.22753 11.8418 1.60339 11.6922 1.99532 11.6922H6.9211C7.31302 11.6922 7.68889 11.8418 7.96602 12.108C8.24315 12.3743 8.39884 12.7353 8.39884 13.1119C8.39884 13.4884 8.24315 13.8495 7.96602 14.1157C7.68889 14.3819 7.31302 14.5315 6.9211 14.5315H1.99532C1.60339 14.5315 1.22753 14.3819 0.950397 14.1157C0.673268 13.8495 0.517578 13.4884 0.517578 13.1119ZM12.3395 14.5069C12.3395 12.3736 14.9442 11.2228 16.6289 12.6121L33.2997 26.3391C35.0927 27.8155 34.0721 30.6378 31.7136 30.7305L24.1476 31.0202C23.3338 31.0504 22.5694 31.3987 22.0255 31.9798L16.8751 37.5108C15.2851 39.22 12.3395 38.1373 12.3395 35.845V14.5088V14.5069Z" fill="#5D5FEF"/>
</svg>
